:SAMPLES-PER-SECOND 30
:FULLY-SPECIFIED
:DEGREES
636
root  48.2342 34.7775 42.3415 5.30788 59.0875 -1.06898
RightUpLeg  -9.89857 -4.87933 -3.81323
RightLeg  11.4039 0.462893 0.0635673
RightFoot  4.32533 0.0277252 0.162288
RightToes  -29.0349 -0.132526 -0.240229
Spine  -0.405714 -0.330839 0.530092
Spine1  -0.896258 -0.664593 1.55882
HEad  -67.1368 8.75498 3.88102
LeftShoulder1  -1.94126e-019 -3.10601e-018 -2.51263e-017
LeftArm  -22.318 23.6446 -78.8891
LeftForeArm  29.2032 -16.3052 -2.62808
LeftHand  -0.481098 -0.874537 9.04672
RightShoulder  -4.96962e-017 0 -2.36833e-017
RightArm  -34.2754 -22.8447 72.818
RightForeArm  54.8962 12.9623 1.40026
RightHand  -0.378403 -1.44638 -11.0253
LeftUpLeg  -7.78496 -2.00572 4.78801
LeftLeg  11.038 11.87 1.51959
LeftFoot  4.9031 -0.0405571 1.10882
LeftToes  -27.9302 1.31378e-006 1.14341e-007
637
root  48.122 34.7816 42.378 5.24362 59.5917 -1.18521
RightUpLeg  -10.0246 -5.11383 -3.59128
RightLeg  11.5178 0.186727 0.026493
RightFoot  4.28415 0.0287597 0.143398
RightToes  -28.9732 -0.133349 -0.24108
Spine  -0.407167 -0.247978 0.463951
Spine1  -0.898745 -0.492096 1.42705
HEad  -66.9968 8.87372 3.92336
LeftShoulder1  -1.94126e-019 -3.10601e-018 -2.51263e-017
LeftArm  -22.4211 23.6931 -78.8206
LeftForeArm  29.1343 -16.0109 -2.58569
LeftHand  -0.47833 -0.815768 9.0737
RightShoulder  -4.96962e-017 0 -2.36833e-017
RightArm  -34.1355 -22.6735 72.9061
RightForeArm  55.0087 12.7597 1.42119
RightHand  -0.382942 -1.3601 -10.9296
LeftUpLeg  -8.40969 -1.71395 5.03452
LeftLeg  11.6991 11.0776 1.54855
LeftFoot  4.90293 -0.0376203 1.04026
LeftToes  -28.1262 1.31378e-006 1.14341e-007
638
root  47.9945 34.78 42.3967 5.26056 60.4225 -1.44318
RightUpLeg  -10.2724 -5.87651 -3.28775
RightLeg  11.4981 0.0829383 0.0121891
RightFoot  4.30008 0.0287062 0.137018
RightToes  -29.0407 -0.1344 -0.242168
Spine  -0.465431 -0.213836 0.443296
Spine1  -1.0147 -0.410893 1.38326
HEad  -66.9125 9.08738 3.7675
LeftShoulder1  -1.94126e-019 -3.10601e-018 -2.51263e-017
LeftArm  -22.5099 23.8128 -78.8616
LeftForeArm  29.0898 -15.986 -2.58366
LeftHand  -0.477049 -0.827766 9.03523
RightShoulder  -4.96962e-017 0 -2.36833e-017
RightArm  -34.021 -22.4931 73.047
RightForeArm  55.0236 12.6044 1.43735
RightHand  -0.365466 -1.57049 -10.9748
LeftUpLeg  -9.56575 -2.21967 5.34494
LeftLeg  12.7895 11.1456 1.77317
LeftFoot  4.58946 -0.0370578 0.987919
LeftToes  -25.4326 1.31378e-006 1.14341e-007
639
root  47.8044 34.775 42.402 5.18721 61.862 -2.25421
RightUpLeg  -10.9003 -7.64123 -2.60718
RightLeg  11.3956 0.29667 0.0409928
RightFoot  4.41484 0.0269506 0.15174
RightToes  -28.9302 -0.135696 -0.243509
Spine  -0.640443 -0.256704 0.514959
Spine1  -1.36251 -0.478758 1.5189
HEad  -67.0988 9.18642 3.48561
LeftShoulder1  -1.94126e-019 -3.10601e-018 -2.51263e-017
LeftArm  -22.5741 23.9353 -78.9904
LeftForeArm  29.1481 -16.3521 -2.64887
LeftHand  -0.476513 -0.835463 9.01468
RightShoulder  -4.96962e-017 0 -2.36833e-017
RightArm  -33.4274 -22.5211 73.1435
RightForeArm  54.7994 12.6474 1.43489
RightHand  -0.359485 -1.614 -10.9116
LeftUpLeg  -11.5845 -3.01299 5.98901
LeftLeg  14.367 10.5958 1.98507
LeftFoot  4.32185 -0.0347239 0.895254
LeftToes  -25.7539 1.31378e-006 1.14341e-007
640
root  47.6608 34.7716 42.3602 5.49837 63.905 -2.40251
RightUpLeg  -10.8941 -9.24305 -2.41162
RightLeg  10.6913 -0.185379 -0.0218558
RightFoot  4.57759 0.0284071 0.11716
RightToes  -29.0231 -0.137252 -0.245119
Spine  -0.712964 -0.345587 0.478933
Spine1  -1.5038 -0.646823 1.45359
HEad  -67.4502 9.08688 2.96114
LeftShoulder1  -1.94126e-019 -3.10601e-018 -2.51263e-017
LeftArm  -22.4261 23.7515 -79.1095
LeftForeArm  29.1399 -16.7767 -2.72062
LeftHand  -0.473238 -0.910804 8.85261
RightShoulder  -4.96962e-017 0 -2.36833e-017
RightArm  -33.1242 -22.6023 73.3625
RightForeArm  54.8413 12.7296 1.4263
RightHand  -0.351161 -1.67301 -10.8167
LeftUpLeg  -13.4761 -4.07725 6.20145
LeftLeg  15.803 9.73165 2.07688
LeftFoot  4.24768 -0.033511 0.820498
LeftToes  -25.5954 1.31378e-006 1.14341e-007
641
root  47.4879 34.7633 42.2992 5.53586 66.6297 -3.15102
RightUpLeg  -11.1019 -12.3326 -1.88655
RightLeg  9.88751 0.176268 0.0201718
RightFoot  4.93474 0.0252924 0.144311
RightToes  -29.5502 -0.140836 -0.248828
Spine  -0.830114 -0.453764 0.539318
Spine1  -1.73195 -0.855888 1.58088
HEad  -68.0927 8.48628 2.50317
LeftShoulder1  -1.94126e-019 -3.10601e-018 -2.51263e-017
LeftArm  -22.1306 23.4213 -79.3761
LeftForeArm  29.2594 -17.6032 -2.85662
LeftHand  -0.472784 -0.971627 8.76462
RightShoulder  -4.96962e-017 0 -2.36833e-017
RightArm  -32.2897 -23.0237 73.4856
RightForeArm  54.0479 13.0866 1.39515
RightHand  -0.345714 -1.70569 -10.7363
LeftUpLeg  -16.0685 -3.82483 6.614
LeftLeg  17.555 7.03059 1.72901
LeftFoot  4.06491 -0.0216247 0.593614
LeftToes  -26.2124 1.31378e-006 1.14341e-007
642
root  47.3327 34.7494 42.2249 5.304 69.8053 -4.05226
RightUpLeg  -11.0062 -15.8712 -1.38276
RightLeg  8.81182 0.566933 0.0519632
RightFoot  5.4143 0.0214034 0.178752
RightToes  -30.4954 -0.147347 -0.255395
Spine  -0.917084 -0.534714 0.570935
Spine1  -1.89872 -1.01636 1.65122
HEad  -68.9387 7.42813 2.17181
LeftShoulder1  -1.94126e-019 -3.10601e-018 -2.51263e-017
LeftArm  -21.7129 22.883 -79.6237
LeftForeArm  29.5707 -18.5119 -3.00986
LeftHand  -0.47123 -1.03653 8.76418
RightShoulder  -4.96962e-017 0 -2.36833e-017
RightArm  -31.5525 -23.5948 73.6195
RightForeArm  53.1875 13.3695 1.37277
RightHand  -0.348056 -1.56427 -10.4259
LeftUpLeg  -18.7359 -1.28913 6.66612
LeftLeg  19.5522 3.62887 1.02805
LeftFoot  3.75952 -0.00541976 0.32666
LeftToes  -28.2167 1.31378e-006 1.14341e-007
643
root  47.2352 34.7359 42.1418 4.79604 72.9469 -4.90297
RightUpLeg  -10.4748 -18.7319 -1.14137
RightLeg  7.66604 0.322795 0.0235933
RightFoot  5.82437 0.0211465 0.157341
RightToes  -31.0813 -0.151437 -0.259411
Spine  -0.925813 -0.498195 0.540484
Spine1  -1.91025 -0.950999 1.59794
HEad  -69.5753 6.04365 1.96811
LeftShoulder1  -1.94126e-019 -3.10601e-018 -2.51263e-017
LeftArm  -21.4981 22.2204 -79.8934
LeftForeArm  29.7845 -19.1794 -3.11821
LeftHand  -0.471326 -1.1661 8.73442
RightShoulder  -4.96962e-017 0 -2.36833e-017
RightArm  -30.7461 -24.1166 73.7204
RightForeArm  53.1369 13.3918 1.37085
RightHand  -0.347639 -1.52426 -10.3097
LeftUpLeg  -21.0659 2.68206 6.15457
LeftLeg  22.3595 6.01258 2.02471
LeftFoot  2.49876 -0.00426259 0.356982
LeftToes  -22.5686 1.31378e-006 1.14341e-007
644
root  47.1983 34.7128 42.0701 3.13191 75.5652 -6.62891
RightUpLeg  -9.82879 -20.927 -0.909904
RightLeg  7.00261 -0.157344 -0.00799726
RightFoot  5.8561 0.0224807 0.109057
RightToes  -30.8 -0.151922 -0.259891
Spine  -0.859193 -0.247489 0.518178
Spine1  -1.77315 -0.462218 1.55452
HEad  -70.0459 4.39148 1.92042
LeftShoulder1  -1.94126e-019 -3.10601e-018 -2.51263e-017
LeftArm  -21.2677 21.7555 -80.1758
LeftForeArm  29.6394 -19.9851 -3.23543
LeftHand  -0.47547 -1.26577 8.56273
RightShoulder  -4.96962e-017 0 -2.36833e-017
RightArm  -29.9135 -24.3891 73.6313
RightForeArm  53.989 13.0822 1.3959
RightHand  -0.367709 -1.17887 -10.0559
LeftUpLeg  -22.7108 8.86312 5.46418
LeftLeg  25.4722 12.2522 4.8456
LeftFoot  0.268505 4.9032e-005 0.140679
LeftToes  -13.511 1.31378e-006 1.14341e-007
645
root  47.2401 34.6622 41.915 -0.235275 78.3509 -9.79121
RightUpLeg  -8.92674 -22.28 -0.893812
RightLeg  6.75692 -1.46038 -0.0772017
RightFoot  5.97253 0.029293 -0.0218352
RightToes  -31.4753 -0.150988 -0.25898
Spine  -0.785856 -0.122501 0.512671
Spine1  -1.6235 -0.216851 1.5415
HEad  -70.1048 2.97659 2.05749
LeftShoulder1  -1.94126e-019 -3.10601e-018 -2.51263e-017
LeftArm  -21.2023 21.7646 -80.5
LeftForeArm  29.5013 -21.1533 -3.41307
LeftHand  -0.47946 -1.33983 8.42897
RightShoulder  -4.96962e-017 0 -2.36833e-017
RightArm  -28.6938 -24.353 73.3623
RightForeArm  55.1179 12.5363 1.44355
RightHand  -0.359577 -1.25599 -10.0057
LeftUpLeg  -23.8553 16.4545 4.38535
LeftLeg  28.2823 17.2178 7.71394
LeftFoot  -0.586696 -0.00143554 -0.118838
LeftToes  -15.1225 1.31378e-006 1.14341e-007
646
root  47.4007 34.6205 41.7171 -3.85869 80.6232 -13.1998
RightUpLeg  -8.24207 -22.9244 -1.24854
RightLeg  7.19004 -3.16277 -0.192288
RightFoot  5.4905 0.034097 -0.163083
RightToes  -31.012 -0.150951 -0.258938
Spine  -0.8403 0.1052 0.436055
Spine1  -1.73118 0.228714 1.39919
HEad  -69.5398 1.77747 2.09787
LeftShoulder1  -1.94126e-019 -3.10601e-018 -2.51263e-017
LeftArm  -20.8051 22.398 -80.7087
LeftForeArm  29.4417 -21.7913 -3.47955
LeftHand  -0.480865 -1.32271 8.47343
RightShoulder  -4.96962e-017 0 -2.36833e-017
RightArm  -28.586 -24.32 73.0819
RightForeArm  57.08 11.7549 1.49847
RightHand  -0.365325 -1.3027 -10.2793
LeftUpLeg  -24.5204 24.2687 3.00444
LeftLeg  30.835 20.0393 9.96368
LeftFoot  -1.42478 -0.00816703 -0.495242
LeftToes  -13.0042 1.31378e-006 1.14341e-007
647
root  47.5886 34.5562 41.3816 -11.6605 83.7226 -20.6583
RightUpLeg  -7.68255 -24.3782 -1.96569
RightLeg  8.59093 -4.77722 -0.407988
RightFoot  4.78126 0.0335847 -0.249288
RightToes  -31.3714 -0.153478 -0.261383
Spine  -0.9345 0.0640872 0.390647
Spine1  -1.91971 0.141919 1.31907
HEad  -68.6944 0.443329 2.12134
LeftShoulder1  -1.94126e-019 -3.10601e-018 -2.51263e-017
LeftArm  -20.3135 23.1497 -80.9833
LeftForeArm  29.1754 -22.0419 -3.50878
LeftHand  -0.473473 -1.34074 8.32457
RightShoulder  -4.96962e-017 0 -2.36833e-017
RightArm  -28.4444 -24.56 72.6234
RightForeArm  57.6298 11.5735 1.50854
RightHand  -0.35294 -1.43032 -10.2315
LeftUpLeg  -24.8162 28.8208 1.71172
LeftLeg  33.1485 20.7252 11.3024
LeftFoot  -1.61184 -0.010765 -0.603684
LeftToes  -10.4253 1.31378e-006 1.14341e-007
